<?xml version="1.0" encoding="utf-8"?>
<!-- Generator: Adobe Illustrator 18.1.1, SVG Export Plug-In . SVG Version: 6.00 Build 0)  -->

<svg version="1.1" id="Layer_1" xmlns="http://www.w3.org/2000/svg" xmlns:xlink="http://www.w3.org/1999/xlink" x="0px" y="0px"
	 viewBox="0 0 612 792" style="enable-background:new 0 0 612 792;" xml:space="preserve">

	<polygon style="fill:#ED1A51;" points="190.571,170.714 206.821,214.194 251.143,191.857 303.143,163.286 378.571,178.143 
		382.571,137.571 344.857,145.571 286.571,145.571 "/>

	<polygon style="fill:#D51D51;" points="381.163,151.857 378.571,178.143 395.714,195.857 422,206.143 432.286,238.143 
		473.429,256.429 464.857,212.429 438,165 "/>

	<polygon style="fill:#C41E53;" points="448.616,245.401 486,261.571 511.714,328.429 480.286,393 466,326.714 471.143,282.714 "/>

	<polygon style="fill:#AD1E51;" points="471.566,352.539 480.286,393 418,456.429 403.714,417.571 432.286,404.484 452.857,399.286 
		"/>

	<polygon style="fill:#9B1C4F;" points="418,456.429 366,498.143 295.447,477.625 326.571,461.571 370.571,462.143 408.286,431.286 
		"/>

	<polygon style="fill:#89194C;" points="326.571,461.571 272.286,489.571 199.143,456.429 162,407.857 173.429,349 200.857,415.857 
		252.286,461.571 "/>

	<polygon style="fill:#7C174A;" points="173.429,349 164.885,393 115.143,321.571 159.143,261 156.857,319.2 "/>

	<polygon style="fill:#6B1346;" points="157.684,298.143 158.571,189.571 194.949,182.429 206.821,214.194 "/>

</svg>
